<mxGraphModel dx="0" dy="0" grid="1" gridSize="10" guides="1" tooltips="1" connect="1" arrows="1" fold="1" page="0" pageScale="1" background="none" math="0" shadow="0">
  <root>
    <mxCell id="0" />
    <mxCell id="1" parent="0" />
    <mxCell id="node0" parent="1" vertex="1" value="&lt;p style=&quot;margin:0px;margin-top:4px;text-align:center;&quot;&gt;&lt;b&gt;Optional&lt;T&gt;&lt;/b&gt;&lt;/p&gt;&lt;hr size=&quot;1&quot;/&gt;&lt;p style=&quot;margin:0 0 0 4px;line-height:1.6;&quot;&gt;- Optional(T): &lt;br/&gt;- Optional(): &lt;/p&gt;&lt;hr size=&quot;1&quot;/&gt;&lt;p style=&quot;margin:0 0 0 4px;line-height:1.6;&quot;&gt;- value: T&lt;br/&gt;- EMPTY: Optional&amp;lt;?&amp;gt;&lt;/p&gt;&lt;hr size=&quot;1&quot;/&gt;&lt;p style=&quot;margin:0 0 0 4px;line-height:1.6;&quot;&gt;+ orElseGet(Supplier&amp;lt;T&amp;gt;): T&lt;br/&gt;+ isPresent(): boolean&lt;br/&gt;+ orElse(T?): T&lt;br/&gt;+ filter(Predicate&amp;lt;T&amp;gt;): Optional&amp;lt;T&amp;gt;&lt;br/&gt;+ ifPresent(Consumer&amp;lt;T&amp;gt;): void&lt;br/&gt;+ orElseThrow(Supplier&amp;lt;X&amp;gt;): T&lt;br/&gt;+ toString(): String&lt;br/&gt;+ map(Function&amp;lt;T, U&amp;gt;): Optional&amp;lt;U&amp;gt;&lt;br/&gt;+ get(): T&lt;br/&gt;+ of(T): Optional&amp;lt;T&amp;gt;&lt;br/&gt;+ flatMap(Function&amp;lt;T, Optional&amp;lt;U&amp;gt;&amp;gt;): Optional&amp;lt;U&amp;gt;&lt;br/&gt;+ ofNullable(T?): Optional&amp;lt;T&amp;gt;&lt;br/&gt;+ equals(Object?): boolean&lt;br/&gt;+ empty(): Optional&amp;lt;T&amp;gt;&lt;br/&gt;+ hashCode(): int&lt;/p&gt;" style="verticalAlign=top;align=left;overflow=fill;fontSize=14;fontFamily=Helvetica;html=1;rounded=0;shadow=0;comic=0;labelBackgroundColor=none;strokeWidth=1;">
      <mxGeometry x="-71" y="-13" width="342" height="470" as="geometry" />
    </mxCell>
  </root>
</mxGraphModel>